<svg xmlns="http://www.w3.org/2000/svg" width="1701" height="409" viewBox="0 0 1701 409" version="1.1">
	<path d="M 173 2.867 C 170.525 4.432, 161.975 9.451, 154 14.022 C 139.771 22.177, 123.353 31.635, 95.500 47.721 C 87.800 52.168, 68.450 63.323, 52.500 72.511 C 9.570 97.238, 7.913 98.240, 8.250 99.249 C 8.420 99.759, 10.854 101.445, 13.660 102.995 C 19.946 106.467, 48.142 122.723, 65.076 132.637 C 77.232 139.754, 80.538 140.981, 82.550 139.123 C 83.340 138.393, 122.283 115.827, 134.808 108.842 C 136.838 107.709, 145.250 102.863, 153.500 98.073 C 161.750 93.283, 175.025 85.601, 183 81.001 C 190.975 76.402, 203.800 68.992, 211.500 64.536 C 219.200 60.080, 231.008 53.299, 237.739 49.467 C 244.470 45.635, 249.983 42.017, 249.989 41.428 C 249.995 40.838, 246.063 38.094, 241.250 35.330 C 236.438 32.567, 228 27.698, 222.500 24.511 C 187.862 4.438, 179.947 0.001, 178.792 0.012 C 178.082 0.018, 175.475 1.303, 173 2.867 M 265.312 65.192 C 257.715 69.592, 249.544 74.290, 247.152 75.631 C 244.761 76.972, 233.736 83.311, 222.652 89.717 C 211.569 96.123, 192.600 107.056, 180.500 114.014 C 168.400 120.971, 147.700 132.874, 134.500 140.465 C 121.300 148.055, 109.933 154.715, 109.241 155.263 C 108.252 156.046, 108.037 167.129, 108.241 206.856 L 108.500 257.452 119.500 263.818 C 163.698 289.398, 177.033 296.990, 178.183 297.228 C 179.253 297.449, 179.594 288.137, 180 247.566 L 180.500 197.632 191.385 191.272 C 197.372 187.775, 204.279 183.792, 206.733 182.422 C 213.002 178.922, 250.011 157.549, 258.833 152.335 C 262.866 149.951, 266.322 148, 266.514 148 C 266.706 148, 272.564 144.625, 279.533 140.500 C 286.501 136.375, 292.335 133, 292.497 133 C 292.659 133, 300.376 128.578, 309.646 123.172 C 318.916 117.767, 331.806 110.286, 338.292 106.548 C 344.778 102.810, 349.929 99.288, 349.741 98.722 C 349.404 97.711, 345.989 95.683, 301.312 69.963 L 279.124 57.190 265.312 65.192 M 0.028 211.250 L 0.056 310.500 8.778 315.419 C 13.575 318.125, 24.250 324.242, 32.500 329.013 C 61.747 345.927, 95.030 365.056, 99.732 367.653 C 102.354 369.101, 105.694 371.122, 107.154 372.143 C 108.614 373.164, 110.012 374, 110.261 374 C 110.688 374, 113.712 375.720, 137.250 389.353 C 142.612 392.459, 151.290 397.475, 156.534 400.499 C 161.777 403.523, 167.101 406.675, 168.364 407.503 C 169.626 408.330, 170.961 408.705, 171.330 408.337 C 171.698 407.968, 172 389.347, 172 366.956 C 172 335.595, 171.713 326.012, 170.750 325.230 C 169.637 324.326, 149.366 312.514, 139.321 306.916 C 137.219 305.745, 135.050 304.445, 134.500 304.027 C 133.950 303.609, 131.403 302.114, 128.839 300.703 C 126.276 299.293, 118.176 294.669, 110.839 290.427 C 103.503 286.186, 91.875 279.477, 85 275.518 L 72.500 268.321 72.242 210.723 L 71.984 153.124 63.742 148.217 C 59.209 145.519, 47.400 138.676, 37.500 133.012 C 27.600 127.348, 17.475 121.497, 15 120.008 C 7.661 115.595, 1.184 112, 0.572 112 C 0.257 112, 0.013 156.662, 0.028 211.250 M 342.500 120.126 C 334.800 124.554, 326.025 129.640, 323 131.430 C 319.975 133.219, 310.641 138.642, 302.258 143.479 L 287.016 152.275 286.758 209.863 L 286.500 267.452 280.500 271.068 C 277.200 273.057, 271.868 276.144, 268.651 277.927 C 265.434 279.711, 256.434 284.876, 248.651 289.404 C 240.868 293.933, 227.975 301.394, 220 305.985 C 212.025 310.575, 201.225 316.847, 196 319.923 L 186.500 325.515 186.259 366.007 C 186.118 389.714, 186.403 407.105, 186.948 407.960 C 187.758 409.232, 188.112 409.219, 189.689 407.861 C 190.685 407.003, 196.225 403.600, 202 400.298 C 207.775 396.997, 217 391.690, 222.500 388.506 C 245.264 375.326, 264.746 364.106, 268.500 362.015 C 270.700 360.790, 276.550 357.421, 281.500 354.528 C 293.109 347.744, 322.206 330.966, 328.009 327.709 C 330.479 326.323, 338.350 321.813, 345.500 317.686 L 358.500 310.183 358.755 211.091 C 358.958 132.129, 358.755 112.008, 357.755 112.038 C 357.065 112.060, 350.200 115.699, 342.500 120.126 M 565.500 138.466 C 553.620 141.424, 546.425 146.814, 542.093 156 L 539.500 161.500 539.500 204 C 539.500 242.799, 539.658 246.887, 541.319 250.944 C 545.748 261.759, 554.589 267.781, 570 270.476 C 582.809 272.717, 660.852 272.654, 672.914 270.394 C 687.196 267.718, 695.050 262.676, 699.695 253.204 L 702.492 247.500 702.855 221.734 C 703.129 202.345, 702.914 195.601, 701.987 194.484 C 700.936 193.218, 695.014 193.002, 661.628 193.015 C 640.107 193.024, 621.920 193.398, 621.212 193.848 C 620.269 194.446, 620.001 197.322, 620.212 204.583 L 620.500 214.500 648.250 214.766 L 676 215.032 676 228.065 C 676 237.346, 675.593 241.887, 674.585 243.835 C 671.644 249.522, 671.855 249.500, 621.099 249.500 C 576.955 249.500, 574.333 249.399, 571.335 247.585 C 569.595 246.531, 567.682 244.598, 567.085 243.288 C 566.368 241.713, 566 228.434, 566 204.101 C 566 167.582, 566.017 167.270, 568.250 163.979 C 569.487 162.155, 572.075 160.098, 574 159.408 C 576.657 158.455, 592.475 158.134, 639.645 158.076 L 701.790 158 702.145 154.250 C 702.340 152.188, 702.349 147.463, 702.165 143.750 L 701.829 137 636.165 137.111 C 587.438 137.193, 569.210 137.542, 565.500 138.466 M 786.243 204.250 L 786.500 271.500 799.500 271.500 L 812.500 271.500 812.766 243.250 L 813.031 215 851.331 215 L 889.632 215 891.687 218.750 C 892.818 220.813, 896.693 228.125, 900.298 235 C 903.903 241.875, 909.295 252.152, 912.279 257.838 C 920.222 272.969, 918.768 272, 933.522 272 C 943.603 272, 946.173 271.713, 946.624 270.538 C 946.933 269.733, 944.443 263.883, 941.093 257.538 C 937.742 251.192, 932.224 240.713, 928.831 234.250 C 925.439 227.787, 921.839 220.932, 920.831 219.015 C 919.824 217.098, 919 215.257, 919 214.924 C 919 214.591, 921.397 213.782, 924.326 213.126 C 933.582 211.055, 940.243 206.704, 944.420 200 C 948.473 193.496, 949.175 189.354, 948.828 173.999 C 948.537 161.122, 948.238 158.997, 946.160 155 C 943.024 148.967, 939.429 145.288, 933.929 142.480 C 923.289 137.050, 922.533 137, 851.599 137 L 785.986 137 786.243 204.250 M 1058.500 138.929 C 1046.485 142.356, 1039.998 147.388, 1035.845 156.500 C 1033.624 161.371, 1033.556 162.473, 1033.208 199.275 C 1032.999 221.428, 1033.264 239.702, 1033.850 243.464 C 1036.283 259.090, 1044.838 267.089, 1062.792 270.525 C 1073.948 272.659, 1165.970 272.675, 1177.105 270.544 C 1193.507 267.406, 1201.584 260.918, 1205.365 247.846 C 1206.751 243.053, 1206.998 236.432, 1206.988 204.346 C 1206.976 165.447, 1206.593 160.857, 1202.741 153.500 C 1200.632 149.471, 1195.402 144.667, 1190.402 142.165 C 1180.622 137.271, 1176.665 136.992, 1118.688 137.109 C 1070.758 137.204, 1063.807 137.415, 1058.500 138.929 M 1314.320 138.487 C 1303.004 141.254, 1295.187 147.033, 1290.824 155.857 C 1288.722 160.107, 1288.531 161.811, 1288.562 176 C 1288.599 193.129, 1289.273 195.825, 1295.206 202.581 C 1299.290 207.233, 1304.261 210.365, 1311.097 212.592 C 1315.856 214.143, 1322.514 214.421, 1367 214.926 C 1413.588 215.456, 1417.707 215.641, 1420.175 217.316 C 1423.713 219.718, 1425 223.767, 1425 232.500 C 1425 241.233, 1423.713 245.282, 1420.175 247.684 C 1417.673 249.382, 1413.468 249.519, 1355.217 249.793 L 1292.933 250.085 1293.217 260.793 L 1293.500 271.500 1352.500 271.781 C 1402.725 272.021, 1412.909 271.826, 1420.971 270.472 C 1432.727 268.498, 1440.786 264.470, 1445.602 258.162 C 1450.478 251.777, 1451.500 247.329, 1451.500 232.500 C 1451.500 224.958, 1450.975 217.776, 1450.250 215.394 C 1448.307 209.011, 1442.933 202.776, 1436.352 199.270 C 1425.886 193.695, 1418.326 193.007, 1367.462 193.003 L 1322.424 193 1318.962 190.110 L 1315.500 187.219 1315.500 176.190 C 1315.500 166.078, 1315.690 164.959, 1317.786 162.728 C 1322.087 158.149, 1324.234 158, 1385.797 158 L 1443.863 158 1444.181 148.478 C 1444.357 143.240, 1444.350 138.515, 1444.167 137.978 C 1443.634 136.414, 1320.828 136.897, 1314.320 138.487 M 1563 138.522 C 1555.308 140.712, 1551.025 142.936, 1546.546 147.065 C 1540.286 152.835, 1537.876 159.203, 1537.241 171.656 C 1536.018 195.608, 1541.850 205.866, 1560.500 212.567 C 1564.972 214.174, 1570.834 214.424, 1616 214.932 C 1662.593 215.456, 1666.707 215.640, 1669.175 217.316 C 1672.713 219.718, 1674 223.767, 1674 232.500 C 1674 241.233, 1672.713 245.282, 1669.175 247.684 C 1666.682 249.376, 1662.278 249.534, 1604.500 250 L 1542.500 250.500 1542.212 260.417 C 1542.001 267.678, 1542.269 270.554, 1543.212 271.152 C 1543.920 271.602, 1571.015 271.976, 1603.422 271.985 C 1666.743 272.001, 1673.595 271.549, 1683.982 266.670 C 1690.514 263.602, 1696.162 257.487, 1698.769 250.661 C 1701.947 242.342, 1702.007 222.765, 1698.879 214.407 C 1696.172 207.170, 1691.556 202.086, 1684.601 198.681 C 1674.101 193.540, 1667.787 193.001, 1618 192.996 C 1574.665 192.993, 1572.348 192.900, 1569.304 191.044 C 1565.114 188.489, 1563.673 183.528, 1564.140 173.254 C 1564.532 164.623, 1565.871 161.964, 1571 159.635 C 1572.735 158.848, 1591.867 158.347, 1633.500 158 L 1693.500 157.500 1693.500 147.500 L 1693.500 137.500 1630.500 137.370 C 1581.964 137.270, 1566.467 137.535, 1563 138.522 M 813 175.750 L 812.999 193.500 863.250 193.243 C 915.547 192.976, 917.619 192.810, 920.540 188.640 C 922.309 186.113, 922.602 166.994, 920.919 163.849 C 920.325 162.739, 917.962 160.978, 915.669 159.937 C 911.762 158.163, 908.410 158.043, 862.250 158.022 L 813 158 813 175.750 M 1068.551 159.431 C 1066.379 160.102, 1063.679 161.888, 1062.551 163.399 C 1060.568 166.055, 1060.500 167.390, 1060.500 203.921 C 1060.500 244.612, 1060.590 245.373, 1065.762 248.140 C 1067.812 249.237, 1078.416 249.500, 1120.586 249.500 L 1172.869 249.500 1175.935 246.563 L 1179 243.626 1179 203.968 C 1179 159.311, 1179.573 162.525, 1171.075 159.526 C 1167.413 158.235, 1159.508 158.016, 1119.624 158.105 C 1085.609 158.181, 1071.402 158.549, 1068.551 159.431" stroke="none" fill="black" fill-rule="evenodd"/>
</svg>